<svg width="25" height="24" viewBox="0 0 25 24" fill="none" xmlns="http://www.w3.org/2000/svg">
<path d="M12.5 22C6.97715 22 2.5 17.5228 2.5 12C2.5 6.47715 6.97715 2 12.5 2C18.0228 2 22.5 6.47715 22.5 12C22.4939 17.5203 18.0203 21.9939 12.5 22ZM4.5 12.172C4.54732 16.5732 8.14111 20.1095 12.5425 20.086C16.944 20.0622 20.4995 16.4875 20.4995 12.086C20.4995 7.68451 16.944 4.10977 12.5425 4.086C8.14111 4.06246 4.54732 7.59876 4.5 12V12.172ZM14.5 17H11.5V13H10.5V11H13.5V15H14.5V17ZM13.5 9H11.5V7H13.5V9Z" fill="#F178B6"/>
</svg>
