<svg width="19" height="18" viewBox="0 0 19 18" fill="none" xmlns="http://www.w3.org/2000/svg">
<path d="M2.73779 11.9023C1.45007 11.5651 0.5 10.3935 0.5 9C0.5 7.9133 1.07781 6.96153 1.94296 6.43519C2.27097 6.23564 2.5 5.88395 2.5 5.5C2.5 2.46243 4.96243 0 8 0C9.1319 0 10.184 0.34194 11.0585 0.92817C11.4304 1.17745 11.9138 1.20323 12.346 1.08641C12.5545 1.03006 12.7737 1 13 1C14.3807 1 15.5 2.11929 15.5 3.5C15.5 3.83774 15.6969 4.16713 16.0096 4.29468C17.4704 4.89045 18.5 6.32499 18.5 8C18.5 9.5603 17.6067 10.9119 16.3036 11.5713L15.6095 17.124C15.5469 17.6245 15.1215 18 14.6172 18H4.38278C3.87846 18 3.45306 17.6245 3.3905 17.124L2.73779 11.9023ZM4.5 5.5C4.5 6.68934 3.8092 7.6409 2.98246 8.1438C2.68886 8.3225 2.5 8.6401 2.5 9C2.5 9.5523 2.94772 10 3.5 10H14.5C15.6046 10 16.5 9.1046 16.5 8C16.5 7.1656 15.9885 6.44599 15.2544 6.14658C14.0999 5.67575 13.5 4.55001 13.5 3.5C13.5 3.22386 13.2761 3 13 3C12.9516 3 12.9078 3.00634 12.8679 3.01712C12.0571 3.23627 10.9331 3.25185 9.9449 2.58946C9.3895 2.21715 8.7231 2 8 2C6.067 2 4.5 3.567 4.5 5.5ZM4.76556 12L5.26556 16H6.5V12H4.76556ZM10.5 16V12H8.5V16H10.5ZM12.5 16H13.7344L14.2344 12H12.5V16Z" fill="url(#paint0_linear_1181_1070)"/>
<defs>
<linearGradient id="paint0_linear_1181_1070" x1="0.5" y1="10.618" x2="18.5068" y2="10.2151" gradientUnits="userSpaceOnUse">
<stop stop-color="#EF709B"/>
<stop offset="1" stop-color="#FA9372"/>
</linearGradient>
</defs>
</svg>
