<svg width="18" height="17" viewBox="0 0 18 17" fill="none" xmlns="http://www.w3.org/2000/svg">
<path d="M15.8436 16.6071L10.1286 10.8911C7.58623 12.6986 4.08305 12.2565 2.06948 9.87402C0.055916 7.49162 0.203766 3.96373 2.40961 1.75814C4.61487 -0.448412 8.14313 -0.596902 10.526 1.41656C12.9088 3.43001 13.3512 6.93359 11.5436 9.47612L17.2586 15.1921L15.8446 16.6061L15.8436 16.6071ZM6.65161 2.00013C4.75531 1.9997 3.1193 3.33082 2.73408 5.18757C2.34887 7.04432 3.32032 8.91642 5.06029 9.67042C6.80025 10.4243 8.83053 9.85302 9.92183 8.30222C11.0132 6.75141 10.8656 4.64746 9.56863 3.26414L10.1736 3.86414L9.49163 3.18414L9.47963 3.17214C8.73143 2.41932 7.71303 1.99727 6.65161 2.00013Z" fill="#8E8E93"/>
</svg>
