<svg width="25" height="24" viewBox="0 0 25 24" fill="none" xmlns="http://www.w3.org/2000/svg">
<path d="M12.5 14C14.7091 14 16.5 12.2091 16.5 10C16.5 7.79086 14.7091 6 12.5 6C10.2909 6 8.5 7.79086 8.5 10C8.5 12.2091 10.2909 14 12.5 14ZM12.5 8C13.6046 8 14.5 8.89543 14.5 10C14.5 11.1046 13.6046 12 12.5 12C11.3954 12 10.5 11.1046 10.5 10C10.5 8.89543 11.3954 8 12.5 8Z" fill="#F178B6"/>
<path d="M4.5 22C3.39543 22 2.5 21.1046 2.5 20V4C2.5 2.89543 3.39543 2 4.5 2H20.5C21.6046 2 22.5 2.89543 22.5 4V20C22.5 21.1046 21.6046 22 20.5 22H4.5ZM4.5 4V20H7.5C7.5 17.2386 9.73858 15 12.5 15C15.2614 15 17.5 17.2386 17.5 20H20.5V4H4.5ZM15.5 20C15.5 18.3431 14.1569 17 12.5 17C10.8431 17 9.5 18.3431 9.5 20H15.5Z" fill="#F178B6"/>
</svg>
