<svg width="21" height="20" viewBox="0 0 21 20" fill="none" xmlns="http://www.w3.org/2000/svg">
<path d="M10.8333 18.9999C10.1883 18.4279 9.45931 17.8329 8.68833 17.1999H8.67833C5.96334 14.9799 2.88633 12.4679 1.52733 9.4579C1.08085 8.4996 0.844244 7.45702 0.833324 6.3999C0.830344 4.94938 1.4121 3.55888 2.44714 2.54266C3.48218 1.52644 4.88312 0.970294 6.33333 0.999904C7.51396 1.00176 8.66917 1.34298 9.66131 1.9829C10.0973 2.26586 10.4917 2.60815 10.8333 2.9999C11.1768 2.60969 11.5714 2.2676 12.0063 1.9829C12.9981 1.34285 14.153 1.00161 15.3333 0.999904C16.7835 0.970294 18.1845 1.52644 19.2195 2.54266C20.2546 3.55888 20.8363 4.94938 20.8333 6.3999C20.8231 7.45871 20.5865 8.5031 20.1393 9.4629C18.7803 12.4729 15.7043 14.9839 12.9893 17.1999L12.9793 17.2079C12.2073 17.8369 11.4793 18.4319 10.8343 19.0079L10.8333 18.9999ZM6.33333 2.9999C5.40184 2.98824 4.50341 3.34474 3.83333 3.9919C3.18772 4.62606 2.82689 5.49494 2.83325 6.3999C2.84466 7.1704 3.01916 7.92975 3.34533 8.6279C3.98684 9.9266 4.85244 11.1019 5.90233 12.0999C6.89333 13.0999 8.03333 14.0679 9.01931 14.8819C9.29231 15.1069 9.57031 15.3339 9.84831 15.5609L10.0233 15.7039C10.2903 15.9219 10.5663 16.1479 10.8333 16.3699L10.8463 16.3579L10.8523 16.3529H10.8583L10.8673 16.3459H10.8723H10.8773L10.8953 16.3309L10.9363 16.2979L10.9433 16.2919L10.9543 16.2839H10.9603L10.9693 16.2759L11.6333 15.7309L11.8073 15.5879C12.0883 15.3589 12.3663 15.1319 12.6393 14.9069C13.6253 14.0929 14.7663 13.1259 15.7573 12.1209C16.8074 11.1235 17.673 9.9484 18.3143 8.6499C18.6464 7.9457 18.8234 7.1784 18.8334 6.3999C18.8375 5.49773 18.4768 4.63219 17.8333 3.9999C17.1645 3.34982 16.2659 2.99038 15.3333 2.9999C14.1952 2.99022 13.1073 3.46726 12.3433 4.3109L10.8333 6.0509L9.32331 4.3109C8.5594 3.46726 7.47141 2.99022 6.33333 2.9999Z" fill="#AEAEB2"/>
</svg>
