<svg width="25" height="24" viewBox="0 0 25 24" fill="none" xmlns="http://www.w3.org/2000/svg">
<path d="M5.73779 14.9023C4.45007 14.5651 3.5 13.3935 3.5 12C3.5 10.9133 4.07781 9.96153 4.94296 9.43519C5.27097 9.23564 5.5 8.88395 5.5 8.5C5.5 5.46243 7.96243 3 11 3C12.1319 3 13.184 3.34194 14.0585 3.92817C14.4304 4.17745 14.9138 4.20323 15.346 4.08641C15.5545 4.03006 15.7737 4 16 4C17.3807 4 18.5 5.11929 18.5 6.5C18.5 6.83774 18.6969 7.16713 19.0096 7.29468C20.4704 7.89045 21.5 9.32499 21.5 11C21.5 12.5603 20.6067 13.9119 19.3036 14.5713L18.6095 20.124C18.5469 20.6245 18.1215 21 17.6172 21H7.38278C6.87846 21 6.45306 20.6245 6.3905 20.124L5.73779 14.9023ZM7.5 8.5C7.5 9.68934 6.8092 10.6409 5.98246 11.1438C5.68886 11.3225 5.5 11.6401 5.5 12C5.5 12.5523 5.94772 13 6.5 13H17.5C18.6046 13 19.5 12.1046 19.5 11C19.5 10.1656 18.9885 9.44599 18.2544 9.14658C17.0999 8.67575 16.5 7.55001 16.5 6.5C16.5 6.22386 16.2761 6 16 6C15.9516 6 15.9078 6.00634 15.8679 6.01712C15.0571 6.23627 13.9331 6.25185 12.9449 5.58946C12.3895 5.21715 11.7231 5 11 5C9.067 5 7.5 6.567 7.5 8.5ZM7.76556 15L8.26556 19H9.5V15H7.76556ZM13.5 19V15H11.5V19H13.5ZM15.5 19H16.7344L17.2344 15H15.5V19Z" fill="url(#paint0_linear_1151_1069)"/>
<defs>
<linearGradient id="paint0_linear_1151_1069" x1="3.5" y1="13.618" x2="21.5068" y2="13.2151" gradientUnits="userSpaceOnUse">
<stop stop-color="#EF709B"/>
<stop offset="1" stop-color="#FA9372"/>
</linearGradient>
</defs>
</svg>
