<svg width="25" height="24" viewBox="0 0 25 24" fill="none" xmlns="http://www.w3.org/2000/svg">
<path d="M12.5 22C6.97967 21.9939 2.50606 17.5203 2.5 12V11.8C2.60993 6.30455 7.13459 1.92797 12.6307 2.0009C18.1268 2.07382 22.5337 6.5689 22.4978 12.0653C22.4619 17.5618 17.9966 21.9989 12.5 22ZM12.484 20H12.5C16.9167 19.9956 20.4942 16.4127 20.492 11.996C20.4898 7.57931 16.9087 4.00002 12.492 4.00002C8.07528 4.00002 4.49421 7.57931 4.492 11.996C4.48979 16.4127 8.06729 19.9956 12.484 20ZM13.5 18H11.5V16H13.5V18ZM13.5 15H11.5C11.4684 13.6977 12.1461 12.4808 13.27 11.822C13.93 11.316 14.5 10.88 14.5 10C14.5 8.89545 13.6046 8.00002 12.5 8.00002C11.3954 8.00002 10.5 8.89545 10.5 10H8.5V9.91002C8.51608 8.48096 9.29333 7.16902 10.539 6.46842C11.7846 5.76781 13.3094 5.78496 14.539 6.51342C15.7685 7.24187 16.5161 8.57096 16.5 10C16.4284 11.079 15.8497 12.0602 14.94 12.645C14.1177 13.1612 13.5847 14.0328 13.5 15Z" fill="#F178B6"/>
</svg>
